<?xml version="1.0" standalone="no"?>
<!DOCTYPE svg PUBLIC "-//W3C//DTD SVG 20010904//EN"
 "http://www.w3.org/TR/2001/REC-SVG-20010904/DTD/svg10.dtd">
<svg version="1.0" xmlns="http://www.w3.org/2000/svg"
 width="201.000000pt" height="25.000000pt" viewBox="0 0 201.000000 25.000000"
 preserveAspectRatio="xMidYMid meet">
<metadata>
Created by potrace 1.10, written by Peter Selinger 2001-2011
</metadata>
<g transform="translate(0.000000,25.000000) scale(0.100000,-0.100000)"
fill="#000000" stroke="none">
<path d="M240 120 c0 -80 16 -112 22 -44 6 72 70 72 76 0 2 -20 7 -36 13 -36
13 0 11 84 -3 98 -15 15 -61 15 -76 0 -9 -9 -12 -4 -12 25 0 20 -4 37 -10 37
-6 0 -10 -33 -10 -80z"/>
<path d="M670 120 c0 -47 4 -80 10 -80 6 0 10 6 10 14 0 7 7 19 15 26 13 10
19 8 36 -14 11 -14 28 -26 37 -26 12 0 8 8 -13 30 l-29 31 29 24 c40 32 11 32
-31 0 -18 -14 -35 -25 -38 -25 -3 0 -6 23 -6 50 0 28 -4 50 -10 50 -6 0 -10
-33 -10 -80z"/>
<path d="M1850 120 c0 -47 4 -80 10 -80 6 0 10 15 10 34 0 39 19 59 52 54 19
-2 23 -10 26 -45 4 -56 22 -55 22 1 0 54 -17 71 -65 63 -33 -5 -35 -4 -35 24
0 16 -4 29 -10 29 -6 0 -10 -33 -10 -80z"/>
<path d="M43 170 c-26 -15 -33 -26 -33 -51 0 -43 15 -66 53 -78 49 -16 123 12
88 34 -5 3 -12 1 -16 -5 -10 -16 -72 -12 -89 6 -20 19 -20 44 -2 69 11 15 22
17 65 12 55 -7 69 7 25 23 -37 14 -55 12 -91 -10z"/>
<path d="M450 130 c-15 -15 -19 -28 -14 -43 12 -41 24 -48 85 -45 l59 2 0 51
0 51 -55 2 c-44 2 -59 -2 -75 -18z m94 -16 c22 -21 20 -31 -9 -50 -46 -30
-100 17 -63 54 17 17 54 15 72 -4z"/>
<path d="M877 143 c-4 -3 -7 -28 -7 -55 0 -36 4 -48 15 -48 11 0 15 11 15 39
0 40 11 51 51 51 10 0 19 5 19 10 0 6 -11 10 -24 10 -14 0 -28 -4 -31 -10 -3
-5 -11 -10 -16 -10 -6 0 -7 5 -4 10 7 11 -8 14 -18 3z"/>
<path d="M1036 134 c-20 -19 -21 -68 -2 -83 7 -6 39 -10 70 -9 l56 2 0 51 0
51 -54 2 c-39 2 -59 -2 -70 -14z m92 -16 c31 -31 -16 -76 -62 -59 -46 18 -28
71 24 71 14 0 31 -5 38 -12z"/>
<path d="M1248 98 c16 -29 35 -53 42 -53 8 0 29 24 47 53 22 34 29 52 20 52
-8 0 -25 -21 -39 -47 l-26 -47 -23 47 c-13 26 -29 47 -37 47 -10 0 -5 -15 16
-52z"/>
<path d="M1422 128 c56 -89 60 -98 48 -113 -8 -10 -9 -15 -2 -15 10 0 92 128
92 143 0 22 -23 0 -45 -44 l-26 -51 -26 51 c-15 28 -33 51 -41 51 -12 0 -12
-3 0 -22z"/>
<path d="M1630 114 c0 -62 13 -75 75 -72 l55 2 0 53 c0 29 -4 53 -10 53 -5 0
-10 -13 -10 -28 0 -40 -21 -65 -51 -60 -21 3 -24 9 -27 46 -4 54 -32 60 -32 6z"/>
</g>
</svg>
